# Volt Arc Pistols - placeholder dual weapon mesh
o volt_arc_pistol_left
v -0.20 -0.04 -0.22
v -0.08 -0.04 -0.22
v -0.08 0.04 -0.22
v -0.20 0.04 -0.22
v -0.22 -0.05 0.26
v -0.06 -0.05 0.26
v -0.06 0.05 0.26
v -0.22 0.05 0.26
v -0.16 -0.16 -0.02
v -0.10 -0.16 -0.02
v -0.10 -0.04 0.08
v -0.16 -0.04 0.08
o volt_arc_pistol_right
v 0.08 -0.04 -0.22
v 0.20 -0.04 -0.22
v 0.20 0.04 -0.22
v 0.08 0.04 -0.22
v 0.06 -0.05 0.26
v 0.22 -0.05 0.26
v 0.22 0.05 0.26
v 0.06 0.05 0.26
v 0.10 -0.16 -0.02
v 0.16 -0.16 -0.02
v 0.16 -0.04 0.08
v 0.10 -0.04 0.08
f 1 2 3 4
f 5 8 7 6
f 1 5 6 2
f 2 6 7 3
f 3 7 8 4
f 4 8 5 1
f 9 10 11 12
f 13 14 15 16
f 17 20 19 18
f 13 17 18 14
f 14 18 19 15
f 15 19 20 16
f 16 20 17 13
f 21 22 23 24
