# Bruno Gravity Hammer - placeholder melee weapon mesh
o bruno_gravity_hammer
v -0.035 -0.035 -0.58
v 0.035 -0.035 -0.58
v 0.035 0.035 -0.58
v -0.035 0.035 -0.58
v -0.035 -0.035 0.34
v 0.035 -0.035 0.34
v 0.035 0.035 0.34
v -0.035 0.035 0.34
v -0.22 -0.11 0.30
v 0.22 -0.11 0.30
v 0.22 0.11 0.30
v -0.22 0.11 0.30
v -0.20 -0.10 0.58
v 0.20 -0.10 0.58
v 0.20 0.10 0.58
v -0.20 0.10 0.58
f 1 2 3 4
f 5 8 7 6
f 1 5 6 2
f 2 6 7 3
f 3 7 8 4
f 4 8 5 1
f 9 10 11 12
f 13 16 15 14
f 9 13 14 10
f 10 14 15 11
f 11 15 16 12
f 12 16 13 9
